# xmcd
#
# Track frame offsets: 
#        150
#        12522
#        25861
#        36225
#        48380
#        59603
#        72378
#        81878
#        94583
#        105616
#        119495
#        131966
#        143486
#        154005
#        164531
#        175772
#        188168
#        197488
#        207918
#        218035
#        230465
#        238279
#        250482
#        261688
#        272486
#        283570
#        295760
#        306162
#
# Disc length: 4254 seconds
#
# Revision: 1
# Processed by: cddbd v1.5.2PL0 Copyright (c) Steve Scherf et al.
# Submitted via: ExactAudioCopy v1.1
#
DISCID=a9109c1c
DTITLE=Baby Washington - I've Got A Feeling - The Best Of
DYEAR=2005
DGENRE=Soul
TTITLE0=The Ballad Of Bobby Dawn (mono)
TTITLE1=There He Is (mono)
TTITLE2=Leave Me Alone (mono)
TTITLE3=That's How Heartaches Are Made (mono)
TTITLE4=Careless Hands (mono)
TTITLE5=Standing On The Pier (mono)
TTITLE6=Hush Heart (mono)
TTITLE7=I've Got A Feeling (mono)
TTITLE8=You And The Night And The Music (mono)
TTITLE9=It'll Never Be Over For Me (mono)
TTITLE10=Only Those In Love (mono)
TTITLE11=I Can't Wait Until I See My Baby Again (mono)
TTITLE12=A Handful Of Memories (mono)
TTITLE13=No Time For Pity (mono)
TTITLE14=I'm On The Outside (Looking In) (stereo)
TTITLE15=Take Me Like I Am (stereo)
TTITLE16=All Around The World (stereo)
TTITLE17=I Got It Bad And That Ain't Good (stereo)
TTITLE18=People Sure Act Funny (stereo)
TTITLE19=I'm Calling You Baby (stereo)
TTITLE20=Get A Hold Of Yourself (stereo)
TTITLE21=This Old World (stereo)
TTITLE22=At Last (stereo)
TTITLE23=It's A Hang Up Baby (stereo)
TTITLE24=Hurt So Bad (stereo)
TTITLE25=Think About The Good Times (mono)
TTITLE26=It's All Over But The Crying (stereo)
TTITLE27=Hold Back The Dawn (mono)
EXTD=
EXTT0=
EXTT1=
EXTT2=
EXTT3=
EXTT4=
EXTT5=
EXTT6=
EXTT7=
EXTT8=
EXTT9=
EXTT10=
EXTT11=
EXTT12=
EXTT13=
EXTT14=
EXTT15=
EXTT16=
EXTT17=
EXTT18=
EXTT19=
EXTT20=
EXTT21=
EXTT22=
EXTT23=
EXTT24=
EXTT25=
EXTT26=
EXTT27=
PLAYORDER=
